<?xml version="1.0" standalone="no"?><!DOCTYPE svg PUBLIC "-//W3C//DTD SVG 1.1//EN" "http://www.w3.org/Graphics/SVG/1.1/DTD/svg11.dtd"><svg class="icon" width="200px" height="200.00px" viewBox="0 0 1024 1024" version="1.1" xmlns="http://www.w3.org/2000/svg"><path d="M517.504 973.632H265.386667c-93.056 0-168.746667-75.690667-168.746667-168.746667V242.88c0-93.056 75.690667-168.746667 168.746667-168.746667h252.096c93.034667 0 168.725333 75.690667 168.725333 168.746667v562.005333c0.021333 93.056-75.669333 168.746667-168.704 168.746667zM265.386667 116.736a126.293333 126.293333 0 0 0-126.165334 126.165333V804.906667a126.293333 126.293333 0 0 0 126.165334 126.165333h252.096a126.293333 126.293333 0 0 0 126.144-126.165333V242.88a126.293333 126.293333 0 0 0-126.144-126.165333H265.386667z" fill="#222d32" /><path d="M474.837333 441.92H308.053333a84.586667 84.586667 0 0 1-84.501333-84.458667v-63.936a84.586667 84.586667 0 0 1 84.501333-84.48h166.784a84.586667 84.586667 0 0 1 84.522667 84.48v63.936a84.586667 84.586667 0 0 1-84.522667 84.458667z m-166.805333-190.293333a41.941333 41.941333 0 0 0-41.898667 41.898666v63.936c0 23.104 18.794667 41.877333 41.898667 41.877334h166.784a41.962667 41.962667 0 0 0 41.941333-41.877334v-63.936a41.962667 41.962667 0 0 0-41.941333-41.898666h-166.784zM391.445333 650.090667a82.261333 82.261333 0 0 1-82.176-82.176c0-45.333333 36.864-82.197333 82.176-82.197334s82.197333 36.864 82.197334 82.197334a82.282667 82.282667 0 0 1-82.197334 82.176z m0-121.770667a39.637333 39.637333 0 0 0-39.573333 39.594667c0 21.824 17.749333 39.573333 39.573333 39.573333s39.573333-17.770667 39.573334-39.573333a39.637333 39.637333 0 0 0-39.573334-39.594667zM391.445333 840.405333a82.261333 82.261333 0 0 1-82.176-82.154666c0-45.312 36.864-82.197333 82.176-82.197334s82.197333 36.885333 82.197334 82.197334a82.282667 82.282667 0 0 1-82.197334 82.154666z m0-121.728a39.637333 39.637333 0 0 0-39.573333 39.594667c0 21.802667 17.749333 39.552 39.573333 39.552s39.573333-17.749333 39.573334-39.552a39.616 39.616 0 0 0-39.573334-39.594667zM813.056 410.026667a21.290667 21.290667 0 0 1-15.061333-36.330667 155.349333 155.349333 0 0 0 45.76-111.018667 157.226667 157.226667 0 0 0-46.421334-111.424 21.269333 21.269333 0 1 1 30.101334-30.101333 199.402667 199.402667 0 0 1 58.901333 141.418667 197.610667 197.610667 0 0 1-58.218667 141.248 21.312 21.312 0 0 1-15.061333 6.208z" fill="#222d32" /><path d="M753.472 350.464a21.290667 21.290667 0 0 1-15.061333-36.352c26.538667-26.538667 24.810667-71.445333-3.818667-100.096a21.290667 21.290667 0 0 1 30.101333-30.122667c45.248 45.290667 46.954667 117.205333 3.84 160.341334a21.205333 21.205333 0 0 1-15.061333 6.229333zM872.661333 469.632a21.248 21.248 0 0 1-15.04-36.330667c95.722667-95.786667 96.874667-250.474667 2.496-344.810666a21.290667 21.290667 0 1 1 30.122667-30.122667c110.933333 110.933333 109.824 292.629333-2.517333 405.013333a21.226667 21.226667 0 0 1-15.061334 6.250667z" fill="#222d32" /></svg>