<?xml version="1.0" standalone="no"?><!DOCTYPE svg PUBLIC "-//W3C//DTD SVG 1.1//EN" "http://www.w3.org/Graphics/SVG/1.1/DTD/svg11.dtd"><svg class="icon" width="200px" height="200.00px" viewBox="0 0 1024 1024" version="1.1" xmlns="http://www.w3.org/2000/svg"><path d="M595.2 428.8c-25.6 0-44.8 19.2-51.2 44.8H467.2L396.8 262.4c-6.4-19.2-25.6-19.2-32 0L288 563.2l-51.2-358.4c-6.4-25.6-25.6-25.6-32 0L128 512c-6.4 19.2 6.4 38.4 19.2 38.4 6.4 0 19.2-6.4 19.2-19.2l44.8-172.8 57.6 358.4c6.4 25.6 25.6 25.6 32 0L384 390.4l57.6 172.8h108.8c6.4 12.8 25.6 25.6 44.8 25.6 32 0 57.6-38.4 57.6-83.2s-32-76.8-57.6-76.8z" fill="#020202" /><path d="M774.4 512c0-102.4-38.4-185.6-96-230.4-6.4-6.4-19.2 0-25.6 6.4-12.8 12.8-12.8 38.4 0 44.8 44.8 32 76.8 102.4 76.8 179.2 0 76.8-32 147.2-76.8 179.2-12.8 6.4-12.8 32-6.4 44.8 6.4 12.8 19.2 19.2 25.6 12.8 57.6-44.8 102.4-134.4 102.4-236.8z" fill="#020202" /><path d="M723.2 140.8c-6.4 12.8-6.4 38.4 6.4 44.8 76.8 64 128 185.6 128 326.4 0 140.8-51.2 262.4-128 326.4-12.8 6.4-12.8 32-6.4 44.8 6.4 12.8 19.2 19.2 25.6 6.4 89.6-76.8 147.2-217.6 147.2-384 0-160-57.6-300.8-147.2-377.6-6.4-6.4-19.2 0-25.6 12.8z" fill="#020202" /></svg>